<svg width="70" height="70" viewBox="0 0 70 70" fill="none" xmlns="http://www.w3.org/2000/svg">
<g clip-path="url(#clip0_9_47)">
<path d="M69.2344 0.524805C69.5935 0.831328 69.8438 1.2458 69.9479 1.70631C70.052 2.16682 70.0043 2.64864 69.8119 3.07981C63.1182 18.0861 49.0613 38.8236 38.7713 49.6298C35.8871 52.6528 32.33 54.9523 28.3894 56.3411C28.3107 57.3342 28.1269 58.6948 27.6894 60.1386C26.8101 63.0217 24.7713 66.6092 20.2169 67.7511C15.8062 68.8014 11.2351 68.9974 6.75068 68.3286C5.9168 68.1968 5.09466 67.9993 4.29193 67.7379C3.54928 67.5119 2.85709 67.1451 2.25318 66.6573C1.85493 66.3186 1.54805 65.8854 1.36068 65.3973C1.12845 64.771 1.13468 64.0812 1.37818 63.4592C1.79381 62.3873 2.76068 61.7967 3.39506 61.4817C5.1188 60.6198 6.12943 59.4998 7.18818 57.8679C7.6038 57.2379 7.99318 56.5686 8.4438 55.8029L8.95568 54.9367C9.6163 53.8211 10.3819 52.5742 11.3444 51.2267C13.6544 47.9936 16.5988 47.1798 18.9832 47.3067C19.5344 47.3373 20.0463 47.4161 20.5057 47.5167C20.7769 46.7642 21.1269 45.8542 21.5469 44.8567C22.6888 42.1486 24.4257 38.6486 26.7401 35.8048C36.2601 24.1236 53.7775 8.65356 66.6269 0.349805C67.0225 0.0944783 67.4899 -0.0264029 67.9597 0.00512523C68.4295 0.0366533 68.8765 0.218908 69.2344 0.524805ZM20.5844 52.1148C20.0039 51.8623 19.3833 51.7142 18.7513 51.6773C17.6751 51.6204 16.2444 51.8961 14.9057 53.7729C14.0438 54.9761 13.3526 56.1004 12.7182 57.1723L12.2588 57.9467C11.7951 58.7386 11.3269 59.5304 10.8588 60.2567C9.97277 61.6923 8.84831 62.9662 7.5338 64.0236C10.5526 64.5136 15.1288 64.5092 19.1582 63.4986C21.6038 62.8904 22.8463 61.0092 23.5026 58.8611C23.8193 57.7939 24.0045 56.6919 24.0538 55.5798L20.5844 52.1148ZM26.8844 52.2286C27.4094 52.0536 28.0963 51.7911 28.8882 51.4279C31.4085 50.2587 33.6865 48.6262 35.6038 46.6154C43.9163 37.8829 54.9063 22.2467 62.0813 8.85481C50.75 17.2854 37.73 29.2423 30.1351 38.5698C28.2013 40.9454 26.6569 44.0079 25.5763 46.5586C25.0469 47.8186 24.6401 48.9211 24.3732 49.7086L26.8844 52.2286ZM5.12756 65.5286L5.15818 65.5067C5.14878 65.5138 5.13848 65.5241 5.12756 65.5286Z" fill="url(#paint0_linear_9_47)"/>
</g>
<defs>
<linearGradient id="paint0_linear_9_47" x1="35.5963" y1="0.000213623" x2="35.5963" y2="68.7171" gradientUnits="userSpaceOnUse">
<stop stop-color="#FF656B"/>
<stop offset="1" stop-color="#F4A349"/>
</linearGradient>
<clipPath id="clip0_9_47">
<rect width="70" height="70" fill="white"/>
</clipPath>
</defs>
</svg>
