<svg width="70" height="70" viewBox="0 0 70 70" fill="none" xmlns="http://www.w3.org/2000/svg">
<path fill-rule="evenodd" clip-rule="evenodd" d="M47.4861 31.2638C47.6898 31.467 47.8514 31.7083 47.9617 31.9741C48.072 32.2399 48.1287 32.5248 48.1287 32.8125C48.1287 33.1002 48.072 33.3851 47.9617 33.6509C47.8514 33.9167 47.6898 34.1581 47.4861 34.3613L34.3611 47.4863C34.1579 47.69 33.9165 47.8516 33.6507 47.9619C33.385 48.0721 33.1001 48.1289 32.8123 48.1289C32.5246 48.1289 32.2397 48.0721 31.9739 47.9619C31.7082 47.8516 31.4668 47.69 31.2636 47.4863L24.7011 40.9238C24.4977 40.7204 24.3364 40.4789 24.2263 40.2132C24.1162 39.9474 24.0596 39.6626 24.0596 39.375C24.0596 39.0874 24.1162 38.8026 24.2263 38.5368C24.3364 38.2711 24.4977 38.0296 24.7011 37.8263C25.1118 37.4155 25.6689 37.1847 26.2498 37.1847C26.5375 37.1847 26.8223 37.2414 27.088 37.3515C27.3537 37.4615 27.5952 37.6229 27.7986 37.8263L32.8123 42.8444L44.3886 31.2638C44.5918 31.06 44.8332 30.8984 45.0989 30.7881C45.3647 30.6779 45.6496 30.6211 45.9373 30.6211C46.2251 30.6211 46.51 30.6779 46.7757 30.7881C47.0415 30.8984 47.2829 31.06 47.4861 31.2638Z" fill="url(#paint0_linear_9_40)"/>
<path d="M17.5 6.5625H13.125C10.8044 6.5625 8.57876 7.48437 6.93782 9.12532C5.29687 10.7663 4.375 12.9919 4.375 15.3125V61.25C4.375 63.5706 5.29687 65.7962 6.93782 67.4372C8.57876 69.0781 10.8044 70 13.125 70H56.875C59.1956 70 61.4212 69.0781 63.0622 67.4372C64.7031 65.7962 65.625 63.5706 65.625 61.25V15.3125C65.625 12.9919 64.7031 10.7663 63.0622 9.12532C61.4212 7.48437 59.1956 6.5625 56.875 6.5625H52.5V10.9375H56.875C58.0353 10.9375 59.1481 11.3984 59.9686 12.2189C60.7891 13.0394 61.25 14.1522 61.25 15.3125V61.25C61.25 62.4103 60.7891 63.5231 59.9686 64.3436C59.1481 65.1641 58.0353 65.625 56.875 65.625H13.125C11.9647 65.625 10.8519 65.1641 10.0314 64.3436C9.21094 63.5231 8.75 62.4103 8.75 61.25V15.3125C8.75 14.1522 9.21094 13.0394 10.0314 12.2189C10.8519 11.3984 11.9647 10.9375 13.125 10.9375H17.5V6.5625Z" fill="url(#paint1_linear_9_40)"/>
<path d="M41.5625 4.375C42.1427 4.375 42.6991 4.60547 43.1093 5.0157C43.5195 5.42594 43.75 5.98234 43.75 6.5625V10.9375C43.75 11.5177 43.5195 12.0741 43.1093 12.4843C42.6991 12.8945 42.1427 13.125 41.5625 13.125H28.4375C27.8573 13.125 27.3009 12.8945 26.8907 12.4843C26.4805 12.0741 26.25 11.5177 26.25 10.9375V6.5625C26.25 5.98234 26.4805 5.42594 26.8907 5.0157C27.3009 4.60547 27.8573 4.375 28.4375 4.375H41.5625ZM28.4375 0C26.697 0 25.0278 0.691404 23.7971 1.92211C22.5664 3.15282 21.875 4.82202 21.875 6.5625V10.9375C21.875 12.678 22.5664 14.3472 23.7971 15.5779C25.0278 16.8086 26.697 17.5 28.4375 17.5H41.5625C43.303 17.5 44.9722 16.8086 46.2029 15.5779C47.4336 14.3472 48.125 12.678 48.125 10.9375V6.5625C48.125 4.82202 47.4336 3.15282 46.2029 1.92211C44.9722 0.691404 43.303 0 41.5625 0L28.4375 0Z" fill="url(#paint2_linear_9_40)"/>
<defs>
<linearGradient id="paint0_linear_9_40" x1="36.0942" y1="30.6211" x2="36.0942" y2="48.1289" gradientUnits="userSpaceOnUse">
<stop stop-color="#FF656B"/>
<stop offset="1" stop-color="#F4A349"/>
</linearGradient>
<linearGradient id="paint1_linear_9_40" x1="35" y1="6.5625" x2="35" y2="70" gradientUnits="userSpaceOnUse">
<stop stop-color="#FF656B"/>
<stop offset="1" stop-color="#F4A349"/>
</linearGradient>
<linearGradient id="paint2_linear_9_40" x1="35" y1="0" x2="35" y2="17.5" gradientUnits="userSpaceOnUse">
<stop stop-color="#FF656B"/>
<stop offset="1" stop-color="#F4A349"/>
</linearGradient>
</defs>
</svg>
