<svg width="70" height="70" viewBox="0 0 70 70" fill="none" xmlns="http://www.w3.org/2000/svg">
<path d="M13.125 8.75V28.8137L43.75 59.4388L63.8138 39.375L33.1887 8.75H13.125ZM8.75 8.75C8.75 7.58968 9.21094 6.47688 10.0314 5.65641C10.8519 4.83594 11.9647 4.375 13.125 4.375H33.1887C34.349 4.37525 35.4616 4.83635 36.2819 5.65687L66.9069 36.2819C67.7271 37.1023 68.1878 38.2149 68.1878 39.375C68.1878 40.5351 67.7271 41.6477 66.9069 42.4681L46.8431 62.5319C46.0227 63.3521 44.9101 63.8128 43.75 63.8128C42.5899 63.8128 41.4773 63.3521 40.6569 62.5319L10.0319 31.9069C9.21135 31.0866 8.75025 29.974 8.75 28.8137V8.75Z" fill="url(#paint0_linear_9_44)"/>
<path d="M24.0625 21.875C23.4823 21.875 22.9259 21.6445 22.5157 21.2343C22.1055 20.8241 21.875 20.2677 21.875 19.6875C21.875 19.1073 22.1055 18.5509 22.5157 18.1407C22.9259 17.7305 23.4823 17.5 24.0625 17.5C24.6427 17.5 25.1991 17.7305 25.6093 18.1407C26.0195 18.5509 26.25 19.1073 26.25 19.6875C26.25 20.2677 26.0195 20.8241 25.6093 21.2343C25.1991 21.6445 24.6427 21.875 24.0625 21.875ZM24.0625 26.25C25.803 26.25 27.4722 25.5586 28.7029 24.3279C29.9336 23.0972 30.625 21.428 30.625 19.6875C30.625 17.947 29.9336 16.2778 28.7029 15.0471C27.4722 13.8164 25.803 13.125 24.0625 13.125C22.322 13.125 20.6528 13.8164 19.4221 15.0471C18.1914 16.2778 17.5 17.947 17.5 19.6875C17.5 21.428 18.1914 23.0972 19.4221 24.3279C20.6528 25.5586 22.322 26.25 24.0625 26.25ZM4.375 31.0012C4.37525 32.1615 4.83635 33.2741 5.65688 34.0944L38.2812 66.7188L38.0931 66.9069C37.2727 67.7271 36.1601 68.1878 35 68.1878C33.8399 68.1878 32.7273 67.7271 31.9069 66.9069L1.28188 36.2819C0.461347 35.4616 0.000247789 34.349 0 33.1887L0 13.125C0 11.9647 0.460936 10.8519 1.28141 10.0314C2.10188 9.21094 3.21468 8.75 4.375 8.75V31.0012Z" fill="url(#paint1_linear_9_44)"/>
<defs>
<linearGradient id="paint0_linear_9_44" x1="38.4689" y1="4.375" x2="38.4689" y2="63.8128" gradientUnits="userSpaceOnUse">
<stop offset="0.0104167" stop-color="#FF656B"/>
<stop offset="1" stop-color="#F4A349"/>
</linearGradient>
<linearGradient id="paint1_linear_9_44" x1="19.1406" y1="8.75" x2="19.1406" y2="68.1878" gradientUnits="userSpaceOnUse">
<stop offset="0.0104167" stop-color="#FF656B"/>
<stop offset="1" stop-color="#F4A349"/>
</linearGradient>
</defs>
</svg>
